<?xml version="1.0" standalone="no"?>
<!DOCTYPE svg PUBLIC "-//W3C//DTD SVG 20010904//EN"
 "http://www.w3.org/TR/2001/REC-SVG-20010904/DTD/svg10.dtd">
<svg version="1.0" xmlns="http://www.w3.org/2000/svg"
 width="1024.000000pt" height="1024.000000pt" viewBox="0 0 1024.000000 1024.000000"
 preserveAspectRatio="xMidYMid meet">
<metadata>
Created by potrace 1.14, written by Peter Selinger 2001-2017
</metadata>
<g transform="translate(0.000000,1024.000000) scale(0.100000,-0.100000)"
fill="#000000" stroke="none">
<path d="M4800 10030 c-466 -47 -778 -107 -1150 -221 -421 -129 -869 -343
-1265 -604 -560 -368 -1041 -856 -1428 -1446 -229 -350 -409 -721 -537 -1109
-101 -304 -146 -495 -199 -840 -47 -304 -54 -425 -48 -789 6 -340 10 -384 67
-724 101 -606 332 -1204 673 -1742 85 -135 271 -384 391 -525 98 -114 363
-384 464 -471 l62 -54 3 -130 c3 -115 6 -140 34 -218 41 -117 84 -187 168
-272 118 -121 262 -185 415 -185 115 0 208 30 330 107 24 15 30 13 140 -37 63
-29 131 -58 151 -65 19 -7 66 -36 103 -64 114 -84 200 -115 381 -136 33 -4
125 -22 205 -41 341 -82 702 -140 1012 -163 l117 -9 46 -40 c131 -115 452
-119 599 -7 23 17 46 34 52 38 6 3 60 13 120 22 477 68 935 179 1330 321 l159
57 95 -11 c176 -22 303 -8 485 52 259 87 456 217 597 395 101 126 153 247 167
388 l9 85 175 177 c194 194 285 297 415 471 515 686 830 1482 928 2348 24 211
30 726 10 944 -60 683 -240 1286 -563 1889 -220 412 -574 880 -916 1212 -120
116 -342 306 -472 404 -554 416 -1326 766 -1977 897 -144 29 -433 75 -543 86
-142 14 -695 21 -805 10z m640 -270 c564 -44 1117 -190 1652 -436 603 -277
1127 -664 1548 -1145 390 -444 649 -864 862 -1399 158 -395 243 -749 295
-1220 22 -203 25 -714 5 -885 -80 -683 -266 -1259 -585 -1815 -155 -271 -361
-545 -584 -779 l-99 -105 -22 67 c-42 129 -132 234 -248 291 -51 25 -56 30
-50 54 3 15 11 53 18 84 l12 58 38 0 c31 0 40 -5 52 -29 20 -38 82 -91 107
-91 58 0 146 74 220 184 58 87 55 110 -26 184 -35 32 -104 87 -152 121 -80 57
-92 62 -126 58 -101 -14 -122 -114 -37 -171 22 -14 40 -30 40 -34 0 -19 -60
-63 -92 -68 l-35 -6 -27 66 c-14 37 -37 83 -50 104 -24 38 -104 116 -164 162
l-33 25 59 70 c192 229 386 584 501 918 321 931 250 1891 -205 2767 -139 267
-281 466 -522 732 l-25 27 26 73 c26 74 142 444 173 552 26 92 16 207 -24 288
-78 160 -224 237 -507 268 -49 5 -114 10 -142 10 -29 0 -53 2 -53 4 0 1 5 17
11 35 29 83 -58 158 -118 102 -11 -11 -37 -50 -58 -88 -21 -37 -39 -69 -41
-71 -1 -2 -37 -12 -81 -23 -100 -25 -229 -72 -317 -116 -37 -19 -70 -33 -72
-31 -7 8 23 53 36 54 31 2 37 5 58 24 34 32 29 74 -13 107 -31 25 -35 33 -35
74 0 25 -5 71 -11 103 -7 31 -9 59 -6 62 3 4 38 -6 77 -22 66 -26 74 -27 98
-13 58 32 49 102 -18 144 -65 41 -191 89 -236 89 -35 1 -49 9 -97 52 -148 136
-369 193 -561 146 l-79 -20 -34 21 c-34 20 -36 20 -68 3 -18 -10 -48 -39 -66
-65 -18 -25 -58 -75 -88 -110 l-56 -64 -16 69 c-28 122 -58 210 -78 228 -13
12 -32 16 -57 14 -31 -2 -42 -9 -53 -32 -12 -26 -9 -46 39 -235 29 -113 58
-215 65 -226 8 -14 10 -57 7 -142 l-4 -122 -187 6 c-269 8 -511 -17 -796 -82
-83 -19 -153 -35 -156 -35 -4 0 -16 27 -28 59 -35 97 -71 152 -150 232 -81 82
-171 135 -269 160 -51 13 -52 13 -46 44 8 45 -20 76 -77 82 -51 6 -152 -29
-262 -91 -58 -32 -80 -50 -147 -120 -8 -9 -50 -50 -92 -91 -122 -118 -178
-256 -178 -440 0 -111 18 -185 71 -293 l40 -83 -73 -67 c-40 -38 -94 -87 -119
-110 l-46 -42 -129 0 c-71 0 -169 -5 -218 -10 -84 -10 -113 -7 -90 8 49 32 41
127 -13 151 -21 10 -31 8 -60 -9 -19 -11 -37 -20 -40 -20 -3 0 -2 21 2 48 14
89 11 120 -15 148 -52 56 -140 69 -219 34 -61 -28 -177 -149 -208 -217 -32
-70 -25 -98 51 -210 l54 -79 -89 -48 c-49 -26 -112 -65 -141 -87 -55 -41 -82
-51 -56 -21 25 29 40 79 32 104 -17 53 -75 64 -116 21 -24 -26 -162 -233 -187
-280 -26 -50 2 -143 47 -157 23 -8 35 -45 26 -81 l-6 -25 -114 7 c-110 6 -115
5 -139 -17 -19 -18 -25 -34 -25 -64 0 -37 6 -46 67 -104 134 -127 219 -198
249 -211 43 -17 87 5 114 60 12 22 25 39 30 37 19 -7 200 -189 200 -201 0 -8
-17 -52 -39 -98 -177 -384 -273 -846 -273 -1309 1 -371 42 -660 142 -1000 112
-383 335 -820 556 -1093 l47 -57 -60 -63 c-57 -59 -106 -139 -132 -217 -11
-32 -23 -40 -126 -89 -63 -30 -118 -52 -121 -48 -10 10 35 112 79 180 50 77
54 119 13 153 -50 43 -73 34 -197 -78 -177 -160 -189 -173 -189 -201 0 -35 30
-67 70 -76 30 -6 35 -12 42 -44 16 -79 66 -150 116 -168 41 -14 85 0 173 57
37 24 72 44 77 44 6 0 6 -15 0 -42 -11 -50 -43 -196 -94 -433 -20 -93 -40
-174 -44 -179 -5 -4 -52 34 -106 85 -629 607 -1050 1365 -1243 2239 -84 377
-106 606 -98 1027 6 344 21 489 88 844 30 162 102 423 161 589 346 965 1013
1811 1869 2373 513 337 1147 591 1749 701 366 67 789 91 1120 66z m712 -632
c151 -70 233 -228 214 -412 -16 -155 -149 -297 -293 -314 -30 -3 -43 -9 -39
-17 2 -7 -13 -92 -34 -190 -46 -206 -59 -252 -78 -283 -8 -12 -13 -24 -11 -26
2 -2 56 -28 119 -59 63 -31 154 -83 201 -116 113 -79 263 -214 326 -292 132
-167 267 -416 342 -632 70 -204 127 -547 91 -547 -5 0 -10 -19 -11 -42 0 -32
-2 -38 -8 -23 -5 11 -5 32 0 47 9 35 5 38 -50 37 l-46 -2 40 -7 40 -7 -47 -2
c-52 -1 -65 15 -20 25 15 3 31 7 35 8 4 0 -6 7 -24 13 -17 7 -29 9 -25 6 5 -5
-67 -53 -80 -53 -2 0 -1 8 3 18 6 16 5 15 -15 -2 -38 -33 -56 -146 -40 -239
10 -53 42 -117 59 -117 6 0 7 4 4 10 -3 5 0 7 9 4 9 -3 12 -12 9 -22 -5 -12
-2 -14 11 -9 12 5 16 3 13 -5 -4 -13 51 -54 66 -50 5 1 6 -2 2 -8 -3 -5 1 -10
10 -10 10 0 13 -5 9 -12 -5 -8 -2 -9 11 -4 11 4 22 2 26 -6 18 -30 23 15 23
225 0 182 2 206 8 132 10 -110 1 -503 -13 -600 -13 -88 -53 -257 -73 -310
l-15 -40 0 37 c-1 21 4 69 11 106 14 84 1 129 -43 144 -15 5 -30 19 -33 32 -3
13 -15 26 -27 29 -15 4 -20 11 -15 22 4 11 2 14 -6 9 -8 -5 -9 -2 -5 9 3 9 3
16 -1 14 -14 -4 -103 104 -96 115 4 6 3 8 -4 4 -6 -3 -18 4 -26 16 -9 12 -16
19 -16 15 0 -4 -24 10 -52 30 -152 107 -228 146 -357 187 -149 47 -246 59
-441 53 -186 -6 -284 -22 -435 -72 -198 -66 -375 -174 -516 -315 -112 -112
-185 -221 -244 -359 -18 -44 -27 -55 -49 -57 -14 -1 -26 2 -26 7 0 6 -4 7 -10
4 -5 -3 -10 2 -10 11 0 10 -3 14 -7 11 -3 -4 -11 0 -17 8 -23 32 -193 62 -254
46 -46 -13 -58 -29 -66 -87 -17 -137 -52 -312 -65 -328 -5 -6 -11 -54 -13
-107 -4 -109 -12 -97 102 -166 85 -51 282 -135 390 -166 75 -22 88 -29 113
-63 16 -21 24 -40 18 -42 -17 -6 -200 47 -295 84 -587 232 -973 713 -1093
1359 -21 114 -28 407 -14 535 23 198 76 405 137 536 19 40 34 80 34 89 0 8
-30 44 -66 79 -37 36 -63 69 -60 75 4 6 2 11 -4 11 -6 0 -8 5 -4 12 4 7 3 8
-5 4 -6 -4 -8 -12 -5 -18 10 -16 -11 -2 -101 67 -104 79 -155 108 -251 142
-70 24 -93 27 -204 26 -191 -1 -427 -61 -620 -158 -109 -56 -180 -115 -136
-115 8 0 23 -16 35 -35 11 -19 38 -59 60 -89 l40 -53 53 14 c109 30 389 26
446 -6 14 -8 12 -10 -13 -16 -17 -3 -38 -10 -47 -16 -13 -6 -18 -6 -18 3 0 6
-3 9 -6 6 -3 -3 -1 -14 4 -25 5 -10 19 -48 30 -84 24 -74 71 -150 139 -222 24
-27 41 -52 37 -55 -4 -4 -9 -1 -11 6 -3 6 -9 12 -15 12 -6 0 -6 -6 2 -15 8 -9
21 -13 36 -9 14 4 31 1 41 -7 9 -8 28 -19 42 -26 19 -8 21 -12 8 -12 -23 -1
-67 -30 -67 -45 0 -6 -7 -24 -15 -40 -14 -27 -14 -31 10 -62 14 -19 36 -39 48
-45 12 -7 24 -15 27 -18 3 -4 16 -12 30 -19 14 -6 32 -16 40 -21 8 -6 32 -18
53 -27 21 -9 36 -19 33 -21 -7 -7 -176 27 -216 44 -33 14 -34 15 -16 29 17 12
18 14 3 14 -9 0 -17 -4 -17 -9 0 -5 -9 -11 -20 -14 -11 -3 -18 -2 -15 3 2 4
-12 10 -33 13 -51 7 -222 87 -222 103 0 8 -7 14 -16 14 -44 0 -136 86 -495
462 -212 222 -259 283 -259 339 0 79 47 151 143 217 229 157 534 243 866 243
222 0 356 -25 541 -98 149 -60 341 -162 380 -203 16 -17 58 -37 66 -32 5 4 34
41 65 82 71 95 168 200 185 200 7 0 16 5 19 10 4 6 3 9 -2 8 -27 -8 -79 47
-161 171 -112 170 -172 269 -172 286 0 8 -25 14 -77 18 -103 7 -165 32 -229
90 -95 87 -136 210 -114 346 38 235 224 372 449 332 242 -43 370 -314 261
-550 -33 -71 -33 -72 -14 -95 54 -67 178 -232 239 -316 55 -77 171 -209 141
-162 -4 7 -2 19 4 27 8 9 8 15 2 15 -6 0 -13 -5 -15 -10 -3 -6 -4 -5 -3 1 1 7
26 25 56 41 30 16 69 40 87 54 81 61 275 131 448 160 137 24 419 25 495 2 30
-8 84 -21 119 -29 48 -9 60 -14 45 -20 -18 -7 -17 -8 3 -8 33 -1 37 -20 6 -27
-15 -3 -34 -7 -41 -10 -8 -2 -10 4 -6 21 6 23 4 24 -34 22 -34 -1 -38 -3 -24
-13 10 -7 18 -8 20 -3 2 5 10 9 18 9 12 0 12 -4 -1 -30 -17 -34 -19 -50 -5
-50 6 0 10 8 11 18 0 14 2 14 9 -3 6 -15 3 -24 -11 -34 -10 -7 -19 -19 -19
-25 0 -6 4 -6 9 2 6 10 10 7 13 -12 3 -14 1 -23 -3 -20 -4 2 -3 -6 4 -18 38
-72 74 -86 96 -37 7 17 24 34 36 39 18 7 24 18 26 53 2 25 1 43 -3 40 -5 -2
-9 -23 -9 -46 -1 -26 -3 -33 -6 -18 -3 13 -11 30 -18 38 -11 11 -14 10 -19 -5
-3 -9 -3 1 -1 23 2 22 1 32 -1 23 -3 -10 -14 -18 -25 -18 -24 0 -24 15 0 32
11 8 17 22 15 36 -2 13 0 21 5 18 5 -3 18 36 30 87 33 141 101 376 123 430
l21 47 -51 53 c-61 66 -87 115 -101 194 -32 175 69 343 244 406 75 27 211 20
287 -15z m1331 -619 c204 -30 277 -84 277 -201 0 -46 -16 -100 -207 -728 -89
-293 -162 -478 -183 -465 -5 3 -7 0 -4 -8 8 -22 -101 -149 -162 -187 -38 -24
-43 -25 -39 -2 2 9 4 17 5 17 6 0 13 47 14 86 2 81 -71 157 -144 151 l-27 -2
32 63 c62 124 84 199 85 293 0 118 -27 129 -108 42 l-38 -41 -42 28 c-23 15
-42 31 -42 34 0 4 17 15 38 26 20 11 51 29 67 42 17 12 91 53 165 90 74 38
153 82 176 96 24 17 48 25 57 21 10 -3 17 -1 17 5 0 6 9 11 20 11 12 0 20 7
20 17 0 9 8 25 17 35 9 10 25 49 34 86 10 37 18 57 18 45 1 -33 14 -28 29 10
23 55 28 62 56 65 69 8 -15 53 -136 72 -48 8 -129 11 -215 7 -162 -6 -256 -28
-380 -87 -135 -66 -191 -120 -355 -346 l-22 -31 -61 49 c-33 27 -88 70 -122
96 -34 26 -62 51 -63 55 0 17 120 155 211 241 234 223 483 324 802 325 76 1
171 -4 210 -10z m-2238 -69 c169 -12 265 -28 265 -44 0 -6 -13 -54 -29 -106
l-29 -95 -38 2 c-22 1 -109 5 -194 9 -288 13 -591 -46 -812 -157 -31 -16 -64
-29 -71 -29 -8 0 -47 43 -87 95 l-72 96 19 52 c20 52 21 52 84 69 196 54 424
94 617 107 158 12 193 12 347 1z m-3075 -462 c6 -24 20 -62 32 -85 l22 -42
-28 -30 c-16 -17 -42 -33 -58 -37 -25 -5 -36 0 -64 27 -48 47 -63 100 -40 143
20 38 61 65 98 66 24 0 29 -5 38 -42z m1190 -157 c30 -11 78 -21 105 -21 l50
-1 55 -86 c30 -47 63 -102 73 -121 l18 -34 -103 55 c-93 50 -213 101 -323 138
-22 7 -42 15 -44 16 -10 7 86 83 99 79 8 -3 40 -14 70 -25z m4507 -783 c329
-459 518 -958 579 -1528 22 -212 15 -586 -15 -785 -57 -367 -147 -660 -301
-973 -95 -194 -256 -436 -386 -581 l-43 -48 -78 15 c-91 16 -283 10 -414 -13
-169 -29 -367 -99 -486 -172 -32 -20 -76 -45 -98 -57 -22 -11 -49 -29 -60 -39
-50 -47 -93 -76 -100 -69 -5 4 -5 2 -2 -4 8 -14 -46 -67 -58 -57 -4 5 -5 3 -2
-3 3 -5 -11 -30 -33 -55 l-38 -44 -46 32 c-25 18 -66 38 -89 44 l-43 10 -47
192 c-59 241 -100 446 -131 668 -31 220 -59 450 -54 454 1 2 57 21 124 43 66
22 155 56 198 76 43 20 79 36 82 36 10 0 146 88 209 135 399 300 631 788 686
1442 18 218 -2 553 -46 764 -8 38 -15 77 -15 84 0 8 33 33 73 55 75 41 177
124 240 195 53 61 133 195 168 282 51 130 45 125 98 66 26 -28 83 -103 128
-165z m-6320 -120 c41 -39 25 -53 -21 -17 -14 11 -24 25 -21 30 9 13 16 11 42
-13z m744 -738 c84 -63 235 -144 346 -186 81 -31 243 -70 318 -78 115 -13 113
-12 120 -64 57 -450 205 -798 472 -1104 206 -237 478 -433 741 -534 71 -27 72
-28 72 -63 0 -105 -46 -668 -64 -796 -14 -96 -28 -175 -36 -215 -5 -25 -21
-99 -35 -165 -14 -66 -31 -142 -38 -170 l-13 -50 -25 26 c-14 13 -52 38 -85
54 -32 17 -61 32 -64 35 -8 9 -121 30 -200 36 -99 8 -245 -29 -341 -86 -62
-38 -159 -124 -159 -142 0 -4 -4 -8 -10 -8 -5 0 -10 7 -10 16 0 48 -105 215
-174 278 -90 81 -227 156 -325 177 -29 6 -95 9 -146 7 l-94 -5 -27 31 c-124
138 -299 408 -393 609 -326 695 -403 1429 -227 2152 35 143 96 331 135 420
l22 49 79 -81 c44 -45 116 -109 161 -143z m4517 34 c2 -1 -4 -4 -12 -7 -8 -3
-16 2 -19 14 -5 17 -3 18 11 7 9 -7 18 -13 20 -14z m-41 -36 c-3 -7 -5 -2 -5
12 0 14 2 19 5 13 2 -7 2 -19 0 -25z m39 -34 c3 -22 2 -25 -6 -14 -10 15 -14
58 -5 48 3 -3 8 -18 11 -34z m-49 -36 c-2 -13 -4 -5 -4 17 -1 22 1 32 4 23 2
-10 2 -28 0 -40z m120 20 c-3 -7 -5 -2 -5 12 0 14 2 19 5 13 2 -7 2 -19 0 -25z
m100 -70 c-3 -8 -6 -5 -6 6 -1 11 2 17 5 13 3 -3 4 -12 1 -19z m-862 -278
c359 -97 582 -355 601 -694 3 -56 1 -130 -5 -166 -14 -88 -81 -221 -128 -257
-20 -15 -52 -44 -72 -63 -109 -107 -334 -222 -539 -275 -113 -29 -317 -47
-452 -41 -148 7 -211 13 -265 26 -22 5 -52 11 -68 15 -29 6 -139 53 -147 64
-3 3 -12 7 -20 9 -24 6 -99 72 -96 85 1 7 1 9 -1 4 -5 -8 -63 43 -63 56 0 5 5
5 12 1 7 -4 8 -3 4 5 -4 6 -11 9 -16 6 -12 -8 -77 128 -95 200 -27 108 -14
291 30 415 21 59 65 138 131 231 135 193 388 338 683 394 117 22 402 14 506
-15z m-1974 -793 c-10 -9 -11 -8 -5 6 3 10 9 15 12 12 3 -3 0 -11 -7 -18z
m-14 -49 c-3 -8 -6 -5 -6 6 -1 11 2 17 5 13 3 -3 4 -12 1 -19z m370 -90 c-3
-7 -5 -2 -5 12 0 14 2 19 5 13 2 -7 2 -19 0 -25z m14 -51 c-8 -8 -11 -7 -11 4
0 20 13 34 18 19 3 -7 -1 -17 -7 -23z m125 -856 c-23 -331 -23 -341 29 -354
15 -4 13 -5 -7 -6 -16 0 -28 4 -29 12 -2 18 -27 -133 -28 -167 -1 -21 3 -27
14 -22 8 3 15 1 15 -5 0 -5 8 -12 18 -16 9 -3 33 -13 52 -21 58 -26 84 -29 98
-12 12 13 12 13 6 0 -4 -8 11 2 33 23 21 20 42 35 45 32 2 -3 13 5 24 16 l19
22 -25 -12 c-21 -10 -22 -9 -6 1 40 27 110 97 103 104 -4 4 -7 2 -7 -4 0 -7
-5 -12 -12 -12 -9 0 -9 3 1 13 6 6 15 12 19 13 21 2 62 25 62 34 0 5 7 10 15
10 9 0 15 9 15 25 0 14 4 25 9 25 5 0 13 15 17 33 4 17 9 35 10 40 1 4 2 22 3
40 l2 32 16 -30 c9 -16 18 -25 20 -18 2 7 0 21 -6 32 -6 11 -11 32 -10 48 0
25 1 26 9 8 6 -13 7 -3 3 28 l-6 47 181 0 c119 0 207 5 259 15 103 20 103 20
103 -14 0 -15 16 -140 35 -277 37 -257 82 -494 141 -742 19 -79 31 -148 28
-153 -3 -5 -18 -9 -35 -9 -23 0 -29 4 -29 23 0 12 -7 47 -16 77 -9 30 -18 68
-21 84 -4 21 -8 25 -15 15 -6 -9 -8 1 -6 31 1 25 -2 64 -6 88 -6 33 -12 42
-24 38 -10 -3 -34 -8 -55 -12 -28 -5 -35 -9 -25 -16 9 -7 7 -8 -7 -4 -11 3
-59 7 -107 8 -48 1 -85 4 -83 7 6 5 -90 71 -102 71 -5 0 -37 -29 -72 -64 -41
-42 -61 -68 -56 -77 5 -8 4 -10 -3 -5 -7 4 -22 -2 -34 -13 -12 -12 -19 -21
-16 -21 3 0 -14 -20 -38 -45 -24 -25 -44 -51 -44 -58 0 -7 31 -75 68 -152 38
-77 77 -158 87 -180 19 -41 32 -55 50 -55 6 0 3 5 -5 10 -13 8 -13 10 1 10 9
0 19 -9 22 -20 4 -17 14 -20 59 -20 30 0 60 6 67 13 10 10 10 7 2 -15 -15 -39
-62 -132 -71 -138 -4 -3 -12 -14 -18 -25 -6 -11 -12 -14 -12 -7 0 6 -10 12
-22 12 -19 0 -20 2 -8 11 12 9 12 10 -3 5 -10 -3 -24 -6 -30 -6 -8 0 -7 -3 2
-9 25 -16 -4 -20 -78 -10 -109 13 -154 27 -147 45 3 9 6 20 6 25 0 16 18 10
23 -8 3 -11 6 -4 7 15 2 17 3 37 4 42 1 6 -2 10 -6 10 -4 0 -19 12 -32 25 -14
14 -29 25 -34 25 -13 0 -8 68 6 82 9 9 12 8 12 -7 0 -10 3 -16 6 -13 8 9 -22
104 -52 166 -18 37 -31 52 -41 48 -8 -3 -11 -1 -8 4 11 18 -45 23 -64 6 -10
-9 -20 -14 -23 -11 -3 3 -13 -11 -23 -32 -15 -30 -16 -45 -8 -75 6 -21 7 -38
4 -37 -3 0 -40 17 -81 38 l-75 37 3 129 c4 140 -5 199 -44 276 -19 38 -29 48
-56 52 -36 6 -58 -12 -58 -47 0 -37 -69 -369 -79 -379 -5 -5 -18 -7 -28 -5
-20 3 -20 4 -2 78 71 291 125 668 159 1110 13 168 14 172 36 163 14 -5 16 -17
10 -92z m4 -431 c0 -5 -2 -10 -4 -10 -3 0 -8 5 -11 10 -3 6 -1 10 4 10 6 0 11
-4 11 -10z m1120 -450 c0 -5 -10 -10 -22 -9 -22 0 -22 1 -3 9 11 5 21 9 23 9
1 1 2 -3 2 -9z m-2968 -209 c53 -26 108 -76 142 -129 22 -37 111 -207 342
-659 66 -128 122 -233 126 -233 10 0 14 17 63 290 25 140 51 279 56 307 24
123 127 207 253 207 150 0 278 -119 279 -259 0 -27 -9 -99 -21 -160 -12 -60
-51 -274 -87 -475 -35 -201 -69 -390 -75 -420 -45 -252 -54 -275 -125 -338
-79 -69 -182 -90 -282 -56 -65 22 -109 54 -158 114 -41 49 -204 330 -405 693
-51 92 -96 167 -100 167 -10 0 -46 -167 -100 -458 -26 -138 -47 -189 -100
-241 -48 -46 -113 -71 -185 -71 -130 0 -234 80 -272 209 -18 65 -33 -20 142
806 86 407 123 562 141 595 67 123 233 173 366 111z m4834 4 c200 -38 316
-140 316 -277 0 -110 -64 -199 -178 -250 -77 -34 -138 -29 -224 16 -120 62
-246 66 -366 12 -196 -90 -288 -336 -200 -533 36 -79 113 -153 203 -196 63
-30 76 -32 173 -32 102 0 109 1 182 38 95 47 154 109 214 229 55 109 90 149
156 178 169 74 348 -33 348 -205 -1 -162 -174 -427 -360 -550 -90 -60 -218
-119 -304 -140 -322 -79 -660 1 -884 210 -93 86 -142 153 -193 258 -103 216
-109 442 -19 676 111 287 365 488 710 561 108 24 318 26 426 5z m873 -189 c24
-26 20 -48 -14 -76 -14 -11 -20 -10 -42 12 l-25 26 23 31 c12 17 26 31 29 31
4 0 17 -11 29 -24z m-3469 -186 c0 -5 -2 -10 -4 -10 -3 0 -8 5 -11 10 -3 6 -1
10 4 10 6 0 11 -4 11 -10z m1072 -42 c56 -24 121 -92 139 -145 6 -19 9 -62 7
-96 -4 -54 -22 -94 -181 -411 -235 -466 -458 -901 -514 -1005 -85 -156 -159
-206 -308 -206 -105 0 -165 22 -228 83 -52 50 -70 81 -340 597 -60 116 -133
255 -162 310 -168 321 -265 515 -275 553 -25 97 26 204 122 258 47 26 63 29
138 29 68 0 93 -5 126 -22 89 -47 114 -90 363 -607 129 -267 240 -486 246
-486 11 0 194 376 370 760 37 80 81 177 99 216 18 38 48 87 66 108 80 91 211
116 332 64z m-1044 -94 c-4 -3 -12 5 -18 18 -12 22 -12 22 6 6 10 -10 15 -20
12 -24z m1518 -1370 c38 -36 95 -82 127 -102 57 -35 58 -36 35 -48 -64 -33
-458 -133 -678 -173 -196 -35 -252 -42 -248 -31 2 4 32 69 68 144 47 98 71
138 85 141 180 37 292 63 399 95 72 21 134 39 137 39 4 1 37 -29 75 -65z
m-2223 -63 c98 -17 182 -31 187 -31 5 0 18 -26 30 -57 12 -32 41 -94 66 -137
24 -44 42 -81 39 -84 -13 -13 -539 62 -653 94 l-61 17 50 72 c27 40 58 94 70
120 24 55 -10 54 272 6z"/>
<path d="M4810 9439 c-130 -11 -146 -15 -170 -39 -26 -26 -25 -60 4 -273 30
-227 16 -214 228 -197 90 7 170 16 179 21 9 4 22 22 29 39 10 25 10 34 -4 55
-22 33 -43 37 -163 27 l-102 -7 -4 25 c-3 14 -3 27 -1 29 2 2 48 8 101 12 83
6 100 10 115 29 24 29 23 53 -3 76 -18 16 -33 18 -93 15 -148 -7 -141 -8 -144
16 -4 27 6 30 133 38 125 8 132 10 150 45 20 39 19 47 -10 75 -27 28 -52 29
-245 14z"/>
<path d="M4328 9370 c-27 -21 -45 -75 -76 -230 -10 -47 -22 -85 -28 -85 -6 0
-48 44 -93 97 -98 117 -125 135 -176 114 -38 -16 -54 -53 -37 -89 11 -26 157
-194 245 -284 54 -56 66 -63 100 -63 52 0 83 34 97 108 6 32 20 93 30 137 56
247 57 285 4 305 -34 13 -38 13 -66 -10z"/>
<path d="M2653 8639 c-53 -10 -87 -27 -196 -102 -95 -64 -125 -103 -107 -137
16 -30 206 -290 238 -327 35 -39 62 -42 119 -10 59 31 171 133 204 185 110
174 -56 426 -258 391z m70 -180 c55 -28 73 -94 41 -148 -16 -28 -72 -71 -91
-71 -10 0 -71 75 -108 133 -15 23 -15 30 -4 44 39 47 114 66 162 42z"/>
<path d="M8128 8213 c-37 -40 -129 -199 -145 -252 -15 -52 -5 -127 28 -218 22
-56 41 -73 84 -73 59 0 92 50 74 112 -15 52 -12 58 27 58 19 0 67 7 106 16 89
20 132 55 132 107 0 40 -29 80 -148 202 -84 86 -113 95 -158 48z m121 -215
c20 -24 22 -31 10 -39 -16 -10 -99 -12 -99 -3 0 15 43 74 53 73 7 0 23 -14 36
-31z"/>
<path d="M8458 7703 c-52 -43 -115 -94 -140 -113 -60 -45 -79 -77 -66 -110 9
-24 139 -190 202 -258 42 -46 70 -56 105 -37 45 23 54 66 24 113 -10 15 -41
59 -70 99 -29 40 -53 76 -53 81 0 11 75 72 89 72 6 0 36 -32 67 -71 67 -84 92
-99 129 -75 35 23 64 73 57 99 -5 23 -136 214 -173 255 -37 39 -68 29 -171
-55z"/>
<path d="M8778 7115 c-92 -47 -172 -93 -178 -104 -27 -51 6 -111 61 -111 23 0
124 37 204 75 61 29 55 14 -67 -167 -71 -106 -81 -130 -68 -163 19 -50 43 -51
231 -5 96 23 188 48 206 55 40 17 53 57 31 94 -14 25 -17 26 -111 25 -53 -1
-97 1 -97 4 0 2 23 35 50 72 60 81 62 104 20 198 -36 77 -65 112 -94 111 -12
0 -96 -38 -188 -84z"/>
<path d="M1056 6678 c-31 -29 -102 -169 -116 -232 -24 -109 45 -206 147 -206
52 0 94 28 150 101 27 34 55 71 64 82 10 13 22 18 33 14 16 -6 14 -14 -17 -69
-18 -35 -42 -77 -52 -94 -23 -38 -14 -80 20 -96 57 -26 90 9 169 180 32 69 38
91 33 128 -8 72 -69 124 -145 124 -53 0 -105 -39 -171 -129 -52 -69 -82 -88
-94 -57 -3 8 6 37 20 63 83 153 85 161 51 193 -28 26 -61 25 -92 -2z"/>
<path d="M9051 6469 c-161 -53 -201 -77 -201 -123 0 -13 13 -64 29 -113 16
-48 37 -115 46 -148 20 -72 39 -95 76 -95 32 0 69 34 69 64 0 10 -12 64 -27
119 -22 83 -24 100 -12 108 23 14 32 5 45 -42 6 -24 18 -61 27 -81 13 -32 21
-38 46 -38 60 0 73 40 46 144 -16 60 -14 76 10 76 14 0 26 -31 45 -120 25
-115 30 -129 53 -136 55 -19 97 10 97 67 0 36 -48 236 -71 297 -18 47 -49 72
-88 71 -20 0 -105 -23 -190 -50z"/>
<path d="M971 5989 c-80 -32 -145 -122 -166 -232 -40 -210 -39 -259 7 -276 13
-5 110 -14 217 -20 259 -16 243 -27 254 178 8 148 8 152 -16 205 -28 61 -86
122 -134 143 -37 15 -126 16 -162 2z m119 -196 c24 -22 33 -42 42 -91 7 -38 8
-66 2 -71 -10 -10 -179 0 -190 12 -15 14 17 116 46 147 35 37 61 38 100 3z"/>
<path d="M9230 5893 c-216 -34 -228 -37 -247 -78 -15 -31 -15 -35 4 -67 17
-30 24 -33 70 -36 l52 -3 6 -47 c4 -26 11 -61 16 -79 7 -22 7 -38 0 -52 -21
-37 -13 -81 20 -113 29 -29 33 -30 87 -25 90 10 177 44 211 83 53 60 58 97 33
257 -23 145 -33 169 -77 180 -11 3 -90 -6 -175 -20z m119 -203 c6 -28 11 -57
11 -65 0 -20 -40 -45 -71 -45 -25 0 -28 4 -39 66 -11 69 -9 79 25 87 56 13 63
9 74 -43z"/>
<path d="M1010 4661 c-101 -31 -186 -124 -204 -223 -8 -46 19 -180 47 -233 41
-74 115 -86 145 -23 11 23 10 35 -8 85 -11 31 -20 76 -20 99 0 57 41 94 106
94 39 0 47 -4 63 -31 10 -16 21 -50 25 -75 8 -58 21 -83 52 -94 61 -23 111 42
101 131 -17 138 -64 225 -141 260 -42 19 -120 24 -166 10z"/>
<path d="M9069 4645 c-56 -30 -99 -125 -99 -217 0 -90 43 -153 112 -164 52 -9
90 16 158 106 83 109 101 94 51 -44 -20 -53 -21 -60 -6 -82 19 -29 56 -40 85
-24 36 19 74 115 78 195 3 59 0 77 -20 115 -35 66 -80 93 -143 87 -42 -4 -54
-1 -78 19 -33 28 -96 32 -138 9z m81 -141 c0 -23 -33 -75 -45 -71 -12 5 -8 57
7 74 15 18 38 16 38 -3z"/>
<path d="M1310 4143 c-39 -14 -343 -209 -361 -231 -11 -14 -19 -37 -17 -50 5
-41 45 -62 153 -78 162 -24 163 -25 48 -69 -73 -27 -113 -61 -113 -95 0 -9 10
-32 23 -51 31 -47 61 -47 219 -4 184 51 215 63 238 92 24 31 25 64 4 126 -19
58 -40 70 -155 92 -46 9 -90 18 -98 21 -9 3 14 24 58 55 39 28 77 63 85 77 29
60 -26 136 -84 115z"/>
<path d="M9020 4093 c-71 -9 -90 -16 -129 -49 -96 -83 -144 -275 -81 -326 52
-42 96 -14 130 81 12 33 30 67 40 76 39 36 107 15 153 -47 19 -25 19 -26 0
-69 -11 -24 -39 -71 -61 -103 -23 -33 -42 -70 -42 -83 0 -35 34 -63 77 -63
104 0 235 268 193 395 -15 47 -79 118 -134 150 -45 26 -107 42 -146 38z"/>
<path d="M1502 3497 c-31 -33 -28 -52 23 -151 25 -49 45 -97 45 -106 0 -18
-46 -64 -97 -97 -24 -16 -26 -16 -39 2 -7 10 -26 50 -40 89 -15 39 -40 84 -56
100 -25 24 -34 28 -66 23 -45 -8 -82 -47 -82 -87 0 -35 97 -230 142 -284 33
-40 80 -66 122 -66 57 0 137 42 200 104 119 118 132 196 55 332 -84 149 -155
197 -207 141z"/>
<path d="M8693 3496 c-16 -13 -35 -37 -43 -53 -8 -15 -34 -60 -57 -99 -24 -39
-55 -97 -69 -128 -42 -92 -31 -109 156 -238 88 -61 128 -73 172 -55 39 17 67
55 75 103 5 29 1 38 -29 66 -19 18 -64 55 -101 81 -37 27 -67 53 -67 58 0 5
20 53 45 106 25 53 45 106 45 117 0 64 -73 88 -127 42z"/>
<path d="M5653 8775 c5 -99 24 -138 90 -190 63 -49 141 -95 162 -95 10 0 13
-5 9 -12 -4 -6 -3 -9 2 -6 5 3 38 0 74 -8 48 -10 75 -11 105 -3 50 13 117 52
151 87 28 29 68 107 80 156 7 28 7 28 -48 -16 -73 -60 -152 -81 -274 -77 -79
4 -99 8 -157 38 -70 36 -141 102 -177 167 l-22 39 5 -80z"/>
<path d="M3921 8485 c-6 -16 -16 -42 -22 -57 -14 -36 -105 -120 -157 -147
-119 -61 -259 -65 -375 -13 -78 36 -85 27 -34 -39 82 -108 229 -157 342 -113
22 8 48 17 58 21 9 3 17 9 17 13 0 5 8 11 18 14 27 9 138 117 155 151 20 43
26 92 18 150 l-7 50 -13 -30z"/>
<path d="M5941 8216 c-1 -15 -4 -16 -16 -6 -13 10 -15 9 -15 -9 0 -11 5 -21
10 -21 6 0 10 -19 11 -42 l1 -43 9 45 c5 25 8 56 6 70 -3 15 -5 18 -6 6z"/>
<path d="M5448 7943 c7 -3 16 -2 19 1 4 3 -2 6 -13 5 -11 0 -14 -3 -6 -6z"/>
<path d="M5641 7910 c0 -8 4 -24 9 -35 5 -13 9 -14 9 -5 0 8 -4 24 -9 35 -5
13 -9 14 -9 5z"/>
<path d="M5611 7893 c0 -10 4 -27 9 -38 7 -17 9 -15 9 12 1 17 -3 35 -9 38 -5
3 -10 -2 -9 -12z"/>
<path d="M5450 7878 c0 -7 5 -20 10 -28 8 -12 10 -11 10 7 0 12 -4 25 -10 28
-5 3 -10 0 -10 -7z"/>
<path d="M5806 7853 c-9 -58 -7 -93 5 -93 6 0 8 7 5 16 -11 28 4 64 28 64 22
0 62 -37 52 -48 -3 -3 -6 -2 -6 1 0 4 -10 -3 -22 -15 -21 -21 -23 -21 -26 -5
-2 10 2 25 10 34 11 14 11 15 -2 11 -8 -2 -19 -27 -25 -54 -7 -30 -13 -43 -17
-34 -5 12 -7 12 -7 -2 -1 -9 7 -30 17 -47 12 -22 24 -31 44 -31 15 0 30 -4 33
-10 3 -6 -1 -7 -9 -4 -9 3 -16 1 -16 -5 0 -6 8 -11 18 -11 10 0 22 -3 26 -7 9
-10 116 -10 116 -1 0 4 -5 10 -12 14 -14 9 18 34 44 34 26 0 22 17 -6 24 -13
3 -26 15 -29 26 -6 23 -27 27 -27 6 0 -10 -13 -13 -45 -12 -36 1 -45 5 -45 19
0 10 5 15 11 12 6 -4 19 2 30 14 26 28 85 26 93 -3 3 -11 8 -17 12 -13 4 4 14
1 22 -6 13 -10 14 -9 7 2 -6 11 -4 13 9 8 10 -4 20 -7 23 -7 3 0 -1 -8 -8 -17
-12 -15 -12 -16 4 -10 10 4 23 7 29 7 35 0 -140 108 -256 159 -66 28 -72 27
-80 -16z m134 -63 c25 -22 20 -26 -11 -10 -10 6 -19 15 -19 20 0 14 4 13 30
-10z m-23 -126 c-3 -3 -12 -4 -19 -1 -8 3 -5 6 6 6 11 1 17 -2 13 -5z m83 -25
c0 -18 -2 -19 -15 -5 -8 8 -15 17 -15 20 0 3 7 6 15 6 9 0 15 -9 15 -21z"/>
<path d="M4432 7791 c-7 -4 -12 -14 -10 -21 2 -7 -3 -15 -11 -18 -8 -2 -11 0
-7 6 3 6 -7 4 -24 -4 -30 -16 -48 -34 -33 -34 5 0 14 5 20 11 16 16 32 3 29
-26 -2 -13 0 -23 4 -20 3 2 18 -2 33 -10 15 -8 27 -10 27 -4 0 5 -4 9 -9 9 -4
0 -8 18 -8 40 0 30 4 40 15 40 13 0 12 3 -4 16 -17 14 -17 15 -1 10 11 -3 16
-2 12 4 -7 12 -16 12 -33 1z"/>
<path d="M4955 7775 c-75 -11 -151 -30 -257 -62 -23 -7 -22 -11 3 -53 12 -19
37 -64 56 -100 94 -175 138 -222 246 -260 189 -66 417 33 417 181 0 56 -50
219 -89 289 -11 20 -251 23 -376 5z"/>
<path d="M5616 7719 c-11 -11 -15 -19 -9 -19 12 0 38 28 32 34 -2 2 -13 -5
-23 -15z"/>
<path d="M4350 7700 c-12 -8 -11 -10 8 -10 12 0 22 5 22 10 0 13 -11 13 -30 0z"/>
<path d="M4405 7654 c21 -15 49 -19 41 -5 -3 5 -18 11 -33 14 -26 5 -26 4 -8
-9z"/>
<path d="M4483 7640 c1 -14 8 -24 15 -22 6 1 12 -2 12 -8 0 -5 4 -10 9 -10 6
0 6 12 -1 31 -7 20 -13 27 -18 19 -6 -9 -9 -9 -14 1 -3 8 -4 3 -3 -11z"/>
<path d="M4526 7645 c4 -8 8 -15 10 -15 2 0 4 7 4 15 0 8 -4 15 -10 15 -5 0
-7 -7 -4 -15z"/>
<path d="M4116 7621 c-6 -9 31 -27 47 -23 4 1 7 -4 7 -12 0 -8 7 -22 16 -30 8
-9 12 -21 9 -26 -4 -7 2 -9 18 -5 17 5 28 2 34 -9 5 -9 24 -20 42 -26 30 -8
32 -8 19 8 -7 9 -19 23 -27 31 -12 13 -13 12 -7 -7 10 -31 1 -27 -25 10 -21
29 -22 31 -3 25 15 -6 14 -3 -5 13 -19 16 -26 18 -33 8 -6 -10 -10 -10 -18 2
-6 10 -6 16 1 19 6 2 0 10 -12 19 -17 12 -24 13 -27 3 -3 -9 -7 -9 -17 -1 -8
7 -15 7 -19 1z"/>
<path d="M4080 7529 c0 -18 -5 -20 -42 -17 -28 2 -42 7 -40 16 4 20 -11 14
-50 -24 -33 -31 -53 -64 -30 -50 11 7 42 -30 42 -50 0 -8 -4 -13 -9 -9 -17 10
-23 -34 -11 -89 14 -67 39 -96 85 -96 19 0 35 -4 35 -9 0 -11 94 -1 98 10 2 5
11 9 20 9 14 0 15 2 2 10 -10 6 -6 9 16 8 35 -1 57 9 49 23 -3 5 1 6 9 3 11
-4 16 0 16 11 0 9 4 14 9 11 11 -7 45 30 38 41 -3 5 -2 15 4 23 7 13 9 13 9 0
1 -12 3 -11 11 3 14 24 2 97 -15 91 -8 -3 -16 2 -19 10 -7 19 -31 22 -24 4 4
-13 -20 -37 -37 -38 -5 0 -6 13 -3 29 5 25 3 30 -19 35 -14 4 -34 4 -44 1 -12
-4 -19 1 -23 16 -3 11 -10 18 -16 14 -6 -3 -11 0 -11 8 0 14 -20 27 -41 27 -5
0 -9 -9 -9 -21z m210 -219 c0 -5 -4 -10 -10 -10 -5 0 -10 5 -10 10 0 6 5 10
10 10 6 0 10 -4 10 -10z"/>
<path d="M5669 7478 c-35 -38 -62 -95 -52 -111 3 -6 1 -7 -5 -3 -18 11 -27
-61 -11 -81 12 -14 12 -15 1 -9 -11 7 -12 4 -4 -10 22 -39 41 -60 42 -44 0 13
1 13 10 0 6 -9 5 -17 -3 -22 -14 -10 44 -68 68 -68 8 0 15 -5 15 -11 0 -6 7
-8 16 -5 8 3 13 2 10 -3 -3 -5 8 -11 25 -15 43 -8 58 -6 34 4 -18 8 -18 9 5
10 14 2 28 2 31 2 8 -1 2 48 -7 56 -4 4 -5 0 -2 -9 4 -9 2 -22 -2 -29 -5 -8
-10 9 -14 46 -3 32 -10 95 -16 140 -13 104 -13 134 0 114 5 -8 10 -10 10 -5 0
6 -5 17 -10 25 -6 10 -10 11 -10 3 0 -7 -5 -13 -11 -13 -6 0 -9 9 -6 20 4 17
2 20 -14 15 -11 -4 -19 -2 -19 4 0 6 6 11 13 11 8 0 7 4 -3 10 -28 18 -61 10
-91 -22z m-19 -99 c0 -11 -4 -17 -10 -14 -5 3 -10 15 -10 26 0 11 5 17 10 14
6 -3 10 -15 10 -26z m127 -16 c-3 -10 -5 -4 -5 12 0 17 2 24 5 18 2 -7 2 -21
0 -30z m20 -95 c-3 -7 -5 -2 -5 12 0 14 2 19 5 13 2 -7 2 -19 0 -25z m2 -62
c-9 -8 -10 -7 -5 7 3 10 7 24 7 30 1 7 3 4 6 -7 3 -10 -1 -23 -8 -30z"/>
<path d="M6384 7483 c-6 -23 0 -164 8 -193 13 -47 24 -70 57 -120 66 -101 136
-174 159 -165 10 4 12 0 8 -10 -5 -13 1 -16 32 -13 26 2 38 8 40 21 3 14 -4
17 -35 17 -54 0 -66 14 -48 58 19 45 19 48 -6 71 -14 13 -20 27 -16 40 6 24
-3 27 -22 9 -10 -9 -12 -9 -7 -1 3 6 -5 23 -19 37 -24 24 -27 55 -8 89 9 16
38 2 38 -18 0 -13 6 -19 15 -17 12 3 13 1 3 -9 -18 -18 -16 -32 3 -25 12 4 14
1 9 -14 -5 -15 -3 -18 9 -14 23 9 20 26 -14 72 -16 23 -30 44 -30 46 0 3 -18
24 -40 48 -22 24 -40 46 -40 50 0 4 -8 5 -17 1 -10 -3 -15 -3 -11 2 10 11 -28
62 -47 62 -8 0 -18 -11 -21 -24z m140 -140 c-9 -33 -45 -26 -42 9 2 23 5 25
17 15 12 -9 11 -4 -3 18 l-18 30 26 -25 c18 -18 24 -31 20 -47z m-79 -113 c3
-5 1 -10 -4 -10 -6 0 -11 5 -11 10 0 6 2 10 4 10 3 0 8 -4 11 -10z m89 -55
c-4 -8 -10 -15 -15 -15 -5 0 -9 7 -9 15 0 8 7 15 15 15 9 0 12 -6 9 -15z"/>
<path d="M4250 7450 c0 -5 5 -10 10 -10 6 0 10 5 10 10 0 6 -4 10 -10 10 -5 0
-10 -4 -10 -10z"/>
<path d="M4608 7403 c6 -2 18 -2 25 0 6 3 1 5 -13 5 -14 0 -19 -2 -12 -5z"/>
<path d="M5961 7396 c-33 -18 -50 -53 -51 -104 0 -37 6 -50 34 -78 90 -90 226
15 177 135 -23 55 -103 78 -160 47z"/>
<path d="M4573 7383 c-3 -8 -12 -12 -19 -9 -8 3 -14 1 -14 -5 0 -5 -7 -26 -17
-47 -9 -20 -15 -41 -14 -47 1 -5 -6 -1 -14 9 -11 14 -15 16 -15 5 0 -31 21
-86 41 -107 41 -45 71 -132 73 -211 1 -58 5 -77 19 -85 12 -8 22 -8 37 1 11 8
21 9 25 3 4 -6 13 -5 25 2 10 7 16 16 13 22 -4 5 0 7 8 4 21 -8 41 16 26 32
-10 10 -8 10 9 2 18 -9 20 -8 20 11 -1 16 6 23 22 25 12 2 20 8 16 13 -7 12
15 41 26 34 5 -3 6 5 2 17 -5 21 -6 21 -13 2 -5 -14 -8 -7 -8 23 -1 23 -6 43
-12 45 -7 2 -5 11 7 23 17 16 17 18 2 12 -10 -3 -20 -2 -23 2 -2 5 -25 12 -50
15 -25 4 -45 11 -45 17 0 8 48 14 73 10 5 -1 6 3 2 8 -3 6 -12 8 -20 4 -8 -3
-15 -1 -15 5 0 6 5 12 11 14 7 2 5 9 -5 17 -14 12 -16 12 -10 -4 5 -13 4 -16
-4 -11 -7 4 -12 1 -12 -8 0 -22 -23 -20 -43 2 -22 24 -21 30 1 28 12 -1 18 8
20 28 3 20 0 26 -9 20 -9 -5 -10 -2 -5 11 7 18 6 18 -14 0 -24 -22 -26 -8 -3
25 16 22 16 23 -1 17 -14 -6 -16 -3 -11 16 7 22 7 22 -9 2 -11 -14 -14 -15
-10 -4 7 22 -55 33 -63 12z m47 -58 c0 -9 -36 -41 -53 -48 -26 -10 -20 9 11
32 27 20 42 26 42 16z m187 -257 c-3 -7 -5 -2 -5 12 0 14 2 19 5 13 2 -7 2
-19 0 -25z"/>
<path d="M6623 7215 c-10 -10 -9 -14 3 -19 8 -3 13 -2 9 3 -3 5 0 11 7 13 7 3
8 7 3 10 -6 3 -15 0 -22 -7z"/>
<path d="M6645 7181 c-3 -11 -1 -29 5 -38 9 -15 10 -13 5 12 -6 28 -6 29 9 10
13 -18 12 -23 -5 -51 -27 -44 -25 -58 6 -38 20 13 24 23 22 49 -2 18 -11 42
-20 54 -15 23 -15 23 -22 2z"/>
<path d="M3630 7144 c-8 -3 -33 -36 -55 -75 -22 -38 -54 -94 -71 -123 -42 -72
-123 -321 -131 -398 -8 -92 1 -98 158 -103 68 -1 138 -6 154 -9 23 -5 26 -4
10 3 -17 8 -14 10 16 10 20 1 49 6 66 11 31 11 75 61 72 83 -5 37 3 69 22 88
19 19 21 31 18 112 -3 104 -7 120 -22 110 -7 -4 -8 6 -4 31 3 22 2 34 -4 31
-5 -4 -9 1 -9 9 0 8 -11 25 -24 38 -29 28 -39 55 -23 61 15 5 -30 57 -46 54
-6 -1 -11 4 -12 12 0 8 -9 19 -20 25 -11 6 -22 14 -25 18 -7 9 -52 17 -70 12z
m53 -84 c-6 -22 -33 -24 -40 -3 -4 10 9 17 39 22 3 0 4 -8 1 -19z m81 -105
c-4 -8 -11 -12 -16 -9 -6 4 -5 10 3 15 19 12 19 11 13 -6z m82 -151 c-6 -29
-10 -34 -19 -24 -9 10 -9 14 1 17 6 3 12 16 12 31 0 14 3 23 6 19 4 -3 3 -23
0 -43z m-350 -60 c-3 -9 -6 -18 -6 -20 0 -2 -4 -4 -9 -4 -5 0 -7 9 -4 20 3 11
10 20 15 20 6 0 7 -7 4 -16z m351 -106 c-3 -8 -6 -5 -6 6 -1 11 2 17 5 13 3
-3 4 -12 1 -19z m-387 -102 c0 -9 -4 -16 -10 -16 -5 0 -10 6 -10 14 0 8 -3 23
-7 33 -6 17 -6 17 10 1 9 -9 17 -24 17 -32z m331 -59 c-10 -9 -11 -8 -5 6 3
10 9 15 12 12 3 -3 0 -11 -7 -18z"/>
<path d="M5391 7130 c-78 -36 -174 -52 -282 -48 -54 1 -99 0 -99 -3 0 -8 59
-180 70 -204 5 -11 22 -49 38 -85 16 -36 40 -76 52 -89 62 -64 203 -83 272
-36 60 40 83 88 83 170 -1 101 -57 316 -83 315 -4 0 -27 -9 -51 -20z"/>
<path d="M4289 7085 c-42 -27 -49 -42 -49 -93 0 -49 18 -81 59 -109 83 -56
181 -1 181 102 0 39 -5 50 -40 85 -49 49 -95 54 -151 15z"/>
<path d="M4851 7094 c0 -11 3 -14 6 -6 3 7 2 16 -1 19 -3 4 -6 -2 -5 -13z"/>
<path d="M6703 7050 c0 -22 2 -38 5 -35 3 3 12 -5 20 -17 11 -18 12 -19 7 -3
-14 42 -14 54 0 49 12 -5 12 -1 2 20 -18 39 -34 32 -34 -14z"/>
<path d="M6220 7022 c-151 -67 -192 -391 -84 -673 31 -84 84 -173 132 -222
132 -138 297 -86 347 108 19 74 19 238 1 326 -16 76 -70 212 -91 229 -12 10
-13 4 -8 -38 8 -68 -3 -115 -33 -152 -65 -76 -171 0 -205 146 -15 65 -6 115
28 148 29 29 58 33 108 12 45 -19 44 -6 -2 45 -59 65 -139 95 -193 71z"/>
<path d="M6768 6783 c-10 -3 -15 -10 -11 -19 3 -7 9 -11 14 -8 5 3 9 -1 9 -8
0 -8 5 -5 11 5 13 22 2 35 -23 30z"/>
<path d="M6815 6760 c9 -33 7 -70 -4 -84 -5 -6 -8 -33 -6 -61 2 -27 0 -52 -4
-55 -4 -3 -11 -23 -14 -45 -4 -27 -3 -35 3 -25 6 10 10 11 10 3 0 -19 25 -15
45 7 13 14 16 28 11 52 -16 75 -16 98 -2 104 13 5 13 11 -1 47 -9 23 -23 51
-31 62 -14 19 -14 19 -7 -5z"/>
<path d="M6841 6770 c0 -8 4 -22 9 -30 12 -18 12 -2 0 25 -6 13 -9 15 -9 5z"/>
<path d="M6776 6684 c-4 -9 -4 -19 -1 -22 2 -3 7 3 11 12 4 9 4 19 1 22 -2 3
-7 -3 -11 -12z"/>
<path d="M6781 6624 c0 -11 3 -14 6 -6 3 7 2 16 -1 19 -3 4 -6 -2 -5 -13z"/>
<path d="M4135 6617 c-17 -8 -44 -30 -60 -48 -168 -199 -126 -645 81 -869 71
-77 139 -113 210 -112 60 0 96 17 140 64 64 67 94 170 94 323 0 244 -116 501
-275 610 -61 42 -139 55 -190 32z m209 -141 c127 -53 172 -296 65 -351 -39
-21 -71 -19 -110 8 -96 64 -138 235 -77 312 34 44 69 53 122 31z"/>
<path d="M3870 6617 c0 -1 -4 -18 -10 -36 -5 -19 -6 -30 -1 -25 10 11 24 64
16 64 -3 0 -5 -1 -5 -3z"/>
<path d="M5547 6529 c-20 -17 -35 -34 -32 -39 3 -4 -5 -8 -18 -8 -12 0 -41 -5
-64 -11 -23 -6 -67 -9 -98 -8 -30 2 -55 0 -55 -5 0 -15 -23 -8 -45 12 -24 22
-51 18 -59 -8 -3 -10 -4 -5 -2 10 2 16 -1 25 -7 21 -12 -8 -2 -110 13 -129 7
-7 16 -11 21 -8 5 3 9 1 9 -4 0 -30 242 -47 292 -20 15 8 25 18 21 22 -4 4 -1
4 8 1 15 -6 56 33 78 73 14 26 14 42 0 22 -9 -12 -9 -11 -3 5 11 29 7 77 -9
92 -10 11 -19 7 -50 -18z m-174 -86 c-7 -2 -21 -2 -30 0 -10 3 -4 5 12 5 17 0
24 -2 18 -5z"/>
<path d="M2530 6546 c0 -2 8 -10 18 -17 15 -13 16 -12 3 4 -13 16 -21 21 -21
13z"/>
<path d="M2697 6503 c-12 -11 -8 -23 8 -23 8 0 15 7 15 15 0 16 -12 20 -23 8z"/>
<path d="M2614 6455 c0 -19 3 -22 13 -13 10 8 10 14 2 24 -15 18 -15 18 -15
-11z"/>
<path d="M2450 6366 c7 -7 13 -7 20 0 6 6 3 10 -10 10 -13 0 -16 -4 -10 -10z"/>
<path d="M3520 6254 c0 -5 -19 -10 -43 -10 -23 -1 -55 -9 -72 -19 -23 -13 -25
-16 -8 -12 32 7 37 -8 8 -21 -14 -7 -25 -16 -25 -22 0 -5 -5 -10 -11 -10 -5 0
-8 4 -5 9 9 14 -4 41 -19 41 -48 0 2 -459 70 -646 56 -153 62 -159 120 -132
21 10 25 17 20 37 -4 17 -3 21 3 13 7 -10 11 -8 16 10 4 16 8 19 14 10 6 -9
12 -5 22 13 8 14 20 23 27 21 7 -3 19 5 28 17 8 12 15 17 15 12 0 -13 59 68
60 83 0 6 4 12 10 12 5 0 12 16 16 36 4 20 10 31 14 25 10 -17 40 84 40 134 0
27 -6 50 -16 60 -14 14 -16 30 -10 103 5 65 4 83 -5 72 -8 -12 -10 -9 -6 13 2
15 0 27 -5 27 -6 0 -7 11 -4 26 5 20 3 27 -13 31 -10 3 -21 13 -24 24 -3 11
-14 19 -27 19 -12 0 -29 4 -39 10 -25 13 -151 25 -151 14z m195 -44 c3 -5 -1
-10 -10 -10 -9 0 -13 5 -10 10 3 6 8 10 10 10 2 0 7 -4 10 -10z m-115 -40 c0
-5 -18 -10 -40 -10 -22 0 -40 5 -40 10 0 6 18 10 40 10 22 0 40 -4 40 -10z
m167 -82 c-3 -7 -5 -2 -5 12 0 14 2 19 5 13 2 -7 2 -19 0 -25z m-377 -23 c0
-8 -2 -15 -4 -15 -2 0 -6 7 -10 15 -3 8 -1 15 4 15 6 0 10 -7 10 -15z m37 -7
c-3 -8 -6 -5 -6 6 -1 11 2 17 5 13 3 -3 4 -12 1 -19z"/>
<path d="M3964 5683 c-4 -14 -2 -34 5 -44 6 -10 11 -31 11 -47 0 -36 21 -65
67 -91 33 -19 35 -19 16 -2 -29 25 -35 64 -10 69 10 2 26 -3 35 -11 9 -8 28
-18 42 -22 22 -7 23 -6 11 9 -7 9 -22 16 -32 16 -11 0 -19 4 -19 10 0 5 -12
21 -27 36 -16 15 -22 23 -15 20 17 -10 15 9 -3 24 -11 9 -15 9 -15 1 0 -7 -5
-9 -10 -6 -6 4 -8 16 -4 27 4 14 2 18 -5 14 -6 -4 -11 0 -11 8 0 27 -29 18
-36 -11z m13 -25 c-3 -8 -6 -5 -6 6 -1 11 2 17 5 13 3 -3 4 -12 1 -19z m24
-51 c-10 -9 -11 -8 -5 6 3 10 9 15 12 12 3 -3 0 -11 -7 -18z"/>
<path d="M6760 5671 c0 -6 5 -11 11 -11 7 0 9 -10 5 -25 -4 -14 -2 -25 4 -25
16 0 12 46 -5 60 -10 9 -15 9 -15 1z"/>
<path d="M6735 5660 c3 -5 8 -10 11 -10 2 0 4 5 4 10 0 6 -5 10 -11 10 -5 0
-7 -4 -4 -10z"/>
<path d="M6810 5560 c0 -5 5 -10 11 -10 5 0 7 5 4 10 -3 6 -8 10 -11 10 -2 0
-4 -4 -4 -10z"/>
<path d="M4150 5555 c0 -7 61 -37 66 -33 2 3 -12 12 -31 21 -19 9 -35 15 -35
12z"/>
<path d="M4159 5525 c-1 -5 -1 -13 0 -17 1 -11 -17 -10 -59 2 l-35 9 33 -29
c18 -17 40 -29 50 -29 16 1 16 2 0 6 -10 2 -18 8 -18 13 0 5 7 7 15 4 8 -4 15
-1 15 5 0 6 9 11 21 11 11 0 17 -4 14 -10 -4 -6 7 -10 25 -10 43 0 34 24 -11
28 -18 2 -37 9 -41 15 -4 7 -8 8 -9 2z m78 -31 c-3 -3 -12 -4 -19 -1 -8 3 -5
6 6 6 11 1 17 -2 13 -5z"/>
<path d="M4261 5484 c0 -11 3 -14 6 -6 3 7 2 16 -1 19 -3 4 -6 -2 -5 -13z"/>
<path d="M4198 5453 c7 -3 16 -2 19 1 4 3 -2 6 -13 5 -11 0 -14 -3 -6 -6z"/>
<path d="M3801 5363 c-8 -3 -24 -18 -37 -32 -18 -22 -20 -27 -8 -34 22 -12 6
-29 -16 -17 -24 13 -33 13 -25 0 3 -5 2 -10 -4 -10 -5 0 -12 4 -16 9 -6 11
-54 4 -71 -10 -7 -5 -17 -23 -24 -39 -11 -27 -9 -34 20 -82 70 -114 276 -348
306 -348 20 0 23 11 29 93 6 75 5 76 -27 113 -18 21 -26 34 -18 29 12 -7 13
-6 4 6 -15 19 -26 67 -16 73 4 2 6 24 5 48 -1 24 -4 69 -5 100 -2 31 -7 60
-12 65 -5 5 -6 2 -1 -6 5 -9 3 -12 -6 -9 -8 3 -13 12 -11 21 1 8 -2 18 -8 22
-5 3 -10 1 -10 -5 0 -6 -5 -8 -10 -5 -6 4 -8 11 -5 16 7 10 -11 11 -34 2z m76
-79 c-3 -3 -12 -4 -19 -1 -8 3 -5 6 6 6 11 1 17 -2 13 -5z"/>
<path d="M3735 5330 c-3 -6 1 -7 9 -4 18 7 21 14 7 14 -6 0 -13 -4 -16 -10z"/>
<path d="M3931 5234 c0 -11 3 -14 6 -6 3 7 2 16 -1 19 -3 4 -6 -2 -5 -13z"/>
<path d="M7291 7424 c0 -11 3 -14 6 -6 3 7 2 16 -1 19 -3 4 -6 -2 -5 -13z"/>
<path d="M7235 6989 c-11 -17 -2 -18 19 -3 17 12 17 14 4 14 -9 0 -20 -5 -23
-11z"/>
<path d="M6277 5392 c-35 -39 -14 -142 35 -176 52 -37 118 -1 118 63 0 41 -26
97 -54 116 -28 21 -79 19 -99 -3z"/>
<path d="M5205 5282 c-61 -12 -75 -90 -29 -158 36 -52 52 -63 95 -64 42 0 79
33 79 71 -1 34 -33 100 -61 125 -27 24 -54 32 -84 26z"/>
<path d="M5648 3815 c-2 -3 -31 -10 -64 -16 -32 -5 -81 -17 -109 -26 -27 -9
-63 -17 -80 -17 -24 -1 -30 -5 -28 -21 1 -11 -5 -39 -13 -63 -18 -55 -18 -64
4 -88 20 -21 21 -25 23 -51 1 -12 4 -10 9 7 6 19 8 13 7 -26 -2 -92 86 -234
145 -234 11 0 38 -5 58 -11 34 -10 41 -9 61 9 12 12 27 19 32 15 6 -4 8 2 5
15 -4 12 -2 24 3 27 9 6 1 66 -10 75 -3 3 -7 59 -8 125 -5 203 -16 298 -35
280z m-258 -75 c0 -5 -4 -10 -10 -10 -5 0 -10 5 -10 10 0 6 5 10 10 10 6 0 10
-4 10 -10z m37 -232 c-3 -8 -6 -5 -6 6 -1 11 2 17 5 13 3 -3 4 -12 1 -19z"/>
<path d="M5123 3413 c-12 -2 -42 -22 -68 -45 -35 -31 -44 -45 -40 -62 4 -14 3
-17 -3 -8 -7 10 -12 8 -24 -10 -8 -13 -17 -31 -21 -41 -4 -9 -11 -16 -16 -15
-11 3 -71 -61 -71 -75 0 -5 -4 -5 -10 -2 -6 3 -7 -1 -4 -9 4 -10 1 -16 -8 -16
-12 0 -15 -16 -15 -72 0 -40 4 -79 9 -85 6 -7 7 -13 3 -13 -4 0 -2 -6 4 -14 6
-7 23 -12 39 -9 23 3 24 2 7 -6 -16 -8 -17 -10 -4 -10 22 -1 70 24 62 32 -3 4
0 7 8 7 18 0 119 89 102 90 -6 0 -19 -10 -27 -22 -9 -12 -16 -17 -16 -11 0 16
87 103 104 103 17 0 29 27 13 33 -8 2 -8 5 1 11 7 4 12 2 12 -3 0 -6 5 -11 11
-11 7 0 9 10 5 25 -6 25 0 29 42 28 8 -1 11 5 8 14 -4 9 -1 30 6 49 9 27 9 40
-5 74 -9 23 -14 47 -11 54 8 21 -38 30 -93 19z m0 -28 c4 -8 3 -16 -1 -19 -4
-3 -9 4 -9 15 -2 23 3 25 10 4z m87 -35 c0 -5 -2 -10 -4 -10 -3 0 -8 5 -11 10
-3 6 -1 10 4 10 6 0 11 -4 11 -10z m-343 -252 c-3 -8 -6 -5 -6 6 -1 11 2 17 5
13 3 -3 4 -12 1 -19z m203 2 c0 -5 -4 -10 -10 -10 -5 0 -10 5 -10 10 0 6 5 10
10 10 6 0 10 -4 10 -10z m-80 -120 c0 -5 -5 -10 -11 -10 -5 0 -7 5 -4 10 3 6
8 10 11 10 2 0 4 -4 4 -10z"/>
<path d="M5252 3315 c1 -27 -2 -59 -6 -70 -6 -16 -4 -16 12 4 15 19 18 31 11
50 -4 14 -10 35 -13 46 -2 11 -4 -2 -4 -30z"/>
<path d="M4821 3100 c0 -8 4 -24 9 -35 5 -13 9 -14 9 -5 0 8 -4 24 -9 35 -5
13 -9 14 -9 5z"/>
<path d="M5085 3070 c-3 -5 -1 -10 4 -10 6 0 11 5 11 10 0 6 -2 10 -4 10 -3 0
-8 -4 -11 -10z"/>
<path d="M5050 2485 c0 -8 4 -15 10 -15 5 0 7 7 4 15 -4 8 -8 15 -10 15 -2 0
-4 -7 -4 -15z"/>
<path d="M5200 2320 c0 -5 5 -10 11 -10 5 0 7 5 4 10 -3 6 -8 10 -11 10 -2 0
-4 -4 -4 -10z"/>
</g>
</svg>
